<svg width="400" height="400" viewBox="0 0 400 400" fill="none" xmlns="http://www.w3.org/2000/svg">
<rect width="400" height="400" fill="#DBDBEB"/>
<path d="M225 177.5H216.337L212.078 171.113C211.85 170.77 211.541 170.49 211.178 170.296C210.816 170.102 210.411 170 210 170H190C189.589 170 189.184 170.102 188.822 170.296C188.459 170.49 188.15 170.77 187.922 171.113L183.659 177.5H175C173.011 177.5 171.103 178.29 169.697 179.697C168.29 181.103 167.5 183.011 167.5 185V220C167.5 221.989 168.29 223.897 169.697 225.303C171.103 226.71 173.011 227.5 175 227.5H225C226.989 227.5 228.897 226.71 230.303 225.303C231.71 223.897 232.5 221.989 232.5 220V185C232.5 183.011 231.71 181.103 230.303 179.697C228.897 178.29 226.989 177.5 225 177.5ZM211.25 201.25C211.25 203.475 210.59 205.65 209.354 207.5C208.118 209.35 206.361 210.792 204.305 211.644C202.25 212.495 199.988 212.718 197.805 212.284C195.623 211.85 193.618 210.778 192.045 209.205C190.472 207.632 189.4 205.627 188.966 203.445C188.532 201.262 188.755 199 189.606 196.945C190.458 194.889 191.9 193.132 193.75 191.896C195.6 190.66 197.775 190 200 190C202.984 190 205.845 191.185 207.955 193.295C210.065 195.405 211.25 198.266 211.25 201.25Z" fill="#F5F5FB"/>
</svg>
