<svg width="320" height="240" viewBox="0 0 320 240" fill="none" xmlns="http://www.w3.org/2000/svg">
<rect width="320" height="240" fill="#DBDBEB"/>
<path d="M178.75 103.125H172.253L169.059 98.3344C168.887 98.0779 168.656 97.8675 168.384 97.722C168.112 97.5764 167.808 97.5002 167.5 97.5H152.5C152.192 97.5002 151.888 97.5764 151.616 97.722C151.344 97.8675 151.113 98.0779 150.941 98.3344L147.745 103.125H141.25C139.758 103.125 138.327 103.718 137.273 104.773C136.218 105.827 135.625 107.258 135.625 108.75V135C135.625 136.492 136.218 137.923 137.273 138.977C138.327 140.032 139.758 140.625 141.25 140.625H178.75C180.242 140.625 181.673 140.032 182.727 138.977C183.782 137.923 184.375 136.492 184.375 135V108.75C184.375 107.258 183.782 105.827 182.727 104.773C181.673 103.718 180.242 103.125 178.75 103.125ZM168.438 120.938C168.438 122.606 167.943 124.238 167.016 125.625C166.088 127.013 164.771 128.094 163.229 128.733C161.687 129.371 159.991 129.538 158.354 129.213C156.717 128.887 155.214 128.084 154.034 126.904C152.854 125.724 152.05 124.22 151.725 122.584C151.399 120.947 151.566 119.25 152.205 117.709C152.843 116.167 153.925 114.849 155.312 113.922C156.7 112.995 158.331 112.5 160 112.5C162.238 112.5 164.384 113.389 165.966 114.971C167.549 116.554 168.438 118.7 168.438 120.938Z" fill="white"/>
</svg>
